<svg id="figure6" width="1703.75" xmlns="http://www.w3.org/2000/svg" class="erDiagram" height="1103" viewBox="0 0 1703.75 1103" role="graphics-document document" aria-roledescription="er" style="width: 1704px; height: 1103px; max-width: none;"><style>#figure6{font-family:Arial,sans-serif;font-size:15px;fill:#142b38;}@keyframes edge-animation-frame{from{stroke-dashoffset:0;}}@keyframes dash{to{stroke-dashoffset:0;}}#figure6 .edge-animation-slow{stroke-dasharray:9,5!important;stroke-dashoffset:900;animation:dash 50s linear infinite;stroke-linecap:round;}#figure6 .edge-animation-fast{stroke-dasharray:9,5!important;stroke-dashoffset:900;animation:dash 20s linear infinite;stroke-linecap:round;}#figure6 .error-icon{fill:#f9fafb;}#figure6 .error-text{fill:#060504;stroke:#060504;}#figure6 .edge-thickness-normal{stroke-width:1px;}#figure6 .edge-thickness-thick{stroke-width:3.5px;}#figure6 .edge-pattern-solid{stroke-dasharray:0;}#figure6 .edge-thickness-invisible{stroke-width:0;fill:none;}#figure6 .edge-pattern-dashed{stroke-dasharray:3;}#figure6 .edge-pattern-dotted{stroke-dasharray:2;}#figure6 .marker{fill:#526977;stroke:#526977;}#figure6 .marker.cross{stroke:#526977;}#figure6 svg{font-family:Arial,sans-serif;font-size:15px;}#figure6 p{margin:0;}#figure6 .entityBox{fill:#edf5f7;stroke:#64818d;}#figure6 .relationshipLabelBox{fill:#f9fafb;opacity:0.7;background-color:#f9fafb;}#figure6 .relationshipLabelBox rect{opacity:0.5;}#figure6 .labelBkg{background-color:rgba(249, 250, 251, 0.5);}#figure6 .edgeLabel .label{fill:#64818d;font-size:14px;}#figure6 .label{font-family:Arial,sans-serif;color:#142b38;}#figure6 .edge-pattern-dashed{stroke-dasharray:8,8;}#figure6 .node rect,#figure6 .node circle,#figure6 .node ellipse,#figure6 .node polygon{fill:#edf5f7;stroke:#64818d;stroke-width:1px;}#figure6 .relationshipLine{stroke:#526977;stroke-width:1;fill:none;}#figure6 .marker{fill:none!important;stroke:#526977!important;stroke-width:1;}#figure6 :root{--mermaid-font-family:"trebuchet ms",verdana,arial,sans-serif;}</style><g><defs><marker id="figure6_er-onlyOneStart" class="marker onlyOne er" refX="0" refY="9" markerWidth="18" markerHeight="18" orient="auto"><path d="M9,0 L9,18 M15,0 L15,18"/></marker></defs><defs><marker id="figure6_er-onlyOneEnd" class="marker onlyOne er" refX="18" refY="9" markerWidth="18" markerHeight="18" orient="auto"><path d="M3,0 L3,18 M9,0 L9,18"/></marker></defs><defs><marker id="figure6_er-zeroOrOneStart" class="marker zeroOrOne er" refX="0" refY="9" markerWidth="30" markerHeight="18" orient="auto"><circle fill="white" cx="21" cy="9" r="6"/><path d="M9,0 L9,18"/></marker></defs><defs><marker id="figure6_er-zeroOrOneEnd" class="marker zeroOrOne er" refX="30" refY="9" markerWidth="30" markerHeight="18" orient="auto"><circle fill="white" cx="9" cy="9" r="6"/><path d="M21,0 L21,18"/></marker></defs><defs><marker id="figure6_er-oneOrMoreStart" class="marker oneOrMore er" refX="18" refY="18" markerWidth="45" markerHeight="36" orient="auto"><path d="M0,18 Q 18,0 36,18 Q 18,36 0,18 M42,9 L42,27"/></marker></defs><defs><marker id="figure6_er-oneOrMoreEnd" class="marker oneOrMore er" refX="27" refY="18" markerWidth="45" markerHeight="36" orient="auto"><path d="M3,9 L3,27 M9,18 Q27,0 45,18 Q27,36 9,18"/></marker></defs><defs><marker id="figure6_er-zeroOrMoreStart" class="marker zeroOrMore er" refX="18" refY="18" markerWidth="57" markerHeight="36" orient="auto"><circle fill="white" cx="48" cy="18" r="6"/><path d="M0,18 Q18,0 36,18 Q18,36 0,18"/></marker></defs><defs><marker id="figure6_er-zeroOrMoreEnd" class="marker zeroOrMore er" refX="39" refY="18" markerWidth="57" markerHeight="36" orient="auto"><circle fill="white" cx="9" cy="18" r="6"/><path d="M21,18 Q39,0 57,18 Q39,36 21,18"/></marker></defs><g class="root"><g class="clusters"/><g class="edgePaths"><path d="M357.727,1024.013L385.555,1029.594C413.383,1035.175,469.039,1046.338,522.608,1051.919C576.177,1057.5,627.659,1057.5,653.4,1057.5L679.141,1057.5" id="id_entity-public_sku_terms_versions-0_entity-public_sku_fee_periods-1_0" class="edge-thickness-normal edge-pattern-dashed relationshipLine" style="undefined;;;undefined" data-edge="true" data-et="edge" data-id="id_entity-public_sku_terms_versions-0_entity-public_sku_fee_periods-1_0" data-points="W3sieCI6MzU3LjcyNjU2MjUsInkiOjEwMjQuMDEzMDQ5MDEzMzY3Mn0seyJ4Ijo1MjQuNjk1MzEyNSwieSI6MTA1Ny41fSx7IngiOjY3OS4xNDA2MjUsInkiOjEwNTcuNX1d" marker-start="url(#figure6_er-onlyOneStart)" marker-end="url(#figure6_er-zeroOrMoreEnd)"/><path d="M253.452,329L298.66,293.583C343.867,258.167,434.281,187.333,500.851,156.806C567.422,126.279,610.148,136.057,631.512,140.947L652.875,145.836" id="id_entity-public_company_payout_reports-2_entity-private_payout_report_settlement_versions-3_1" class="edge-thickness-normal edge-pattern-solid relationshipLine" style="undefined;;;undefined" data-edge="true" data-et="edge" data-id="id_entity-public_company_payout_reports-2_entity-private_payout_report_settlement_versions-3_1" data-points="W3sieCI6MjUzLjQ1MjM0Mzc1LCJ5IjozMjl9LHsieCI6NTI0LjY5NTMxMjUsInkiOjExNi41fSx7IngiOjY1Mi44NzUsInkiOjE0NS44MzYyNDI3NDg1MzY0NX1d" marker-start="url(#figure6_er-onlyOneStart)" marker-end="url(#figure6_er-zeroOrMoreEnd)"/><path d="M316.903,151.5L351.535,163.167C386.167,174.833,455.431,198.167,511.427,207.117C567.422,216.067,610.148,210.635,631.512,207.918L652.875,205.202" id="id_entity-private_settlement_preprocess_versions-4_entity-private_payout_report_settlement_versions-3_2" class="edge-thickness-normal edge-pattern-dashed relationshipLine" style="undefined;;;undefined" data-edge="true" data-et="edge" data-id="id_entity-private_settlement_preprocess_versions-4_entity-private_payout_report_settlement_versions-3_2" data-points="W3sieCI6MzE2LjkwMzE2MTMzNzIwOTMsInkiOjE1MS41fSx7IngiOjUyNC42OTUzMTI1LCJ5IjoyMjEuNX0seyJ4Ijo2NTIuODc1LCJ5IjoyMDUuMjAyMDg3MzYxOTI0MTl9XQ==" marker-start="url(#figure6_er-onlyOneStart)" marker-end="url(#figure6_er-zeroOrMoreEnd)"/><path d="M375.664,366.5L400.503,366.5C425.341,366.5,475.018,366.5,521.01,374.21C567.003,381.921,609.31,397.341,630.464,405.052L651.617,412.762" id="id_entity-public_company_payout_reports-2_entity-private_payout_report_data_kiosk_versions-5_3" class="edge-thickness-normal edge-pattern-solid relationshipLine" style="undefined;;;undefined" data-edge="true" data-et="edge" data-id="id_entity-public_company_payout_reports-2_entity-private_payout_report_data_kiosk_versions-5_3" data-points="W3sieCI6Mzc1LjY2NDA2MjUsInkiOjM2Ni41fSx7IngiOjUyNC42OTUzMTI1LCJ5IjozNjYuNX0seyJ4Ijo2NTEuNjE3MTg3NSwieSI6NDEyLjc2MjIxODIxOTM4NDl9XQ==" marker-start="url(#figure6_er-onlyOneStart)" marker-end="url(#figure6_er-zeroOrMoreEnd)"/><path d="M299.075,684.75L336.678,669.667C374.282,654.583,449.489,624.417,508.246,600.708C567.003,577,609.31,559.751,630.464,551.126L651.617,542.501" id="id_entity-private_data_kiosk_preprocess_versions-6_entity-private_payout_report_data_kiosk_versions-5_4" class="edge-thickness-normal edge-pattern-dashed relationshipLine" style="undefined;;;undefined" data-edge="true" data-et="edge" data-id="id_entity-private_data_kiosk_preprocess_versions-6_entity-private_payout_report_data_kiosk_versions-5_4" data-points="W3sieCI6Mjk5LjA3NTAxMjIwNzAzMTI1LCJ5Ijo2ODQuNzV9LHsieCI6NTI0LjY5NTMxMjUsInkiOjU5NC4yNX0seyJ4Ijo2NTEuNjE3MTg3NSwieSI6NTQyLjUwMDg2NzUyNjY4OH1d" marker-start="url(#figure6_er-onlyOneStart)" marker-end="url(#figure6_er-zeroOrMoreEnd)"/><path d="M249.42,404L295.299,443.25C341.178,482.5,432.937,561,499.07,608.8C565.203,656.6,605.711,673.699,625.965,682.249L646.219,690.799" id="id_entity-public_company_payout_reports-2_entity-private_payout_report_terms_versions-7_5" class="edge-thickness-normal edge-pattern-solid relationshipLine" style="undefined;;;undefined" data-edge="true" data-et="edge" data-id="id_entity-public_company_payout_reports-2_entity-private_payout_report_terms_versions-7_5" data-points="W3sieCI6MjQ5LjQxOTY0Mjg1NzE0Mjg2LCJ5Ijo0MDR9LHsieCI6NTI0LjY5NTMxMjUsInkiOjYzOS41fSx7IngiOjY0Ni4yMTg3NSwieSI6NjkwLjc5OTIzNzEwNjMwMTh9XQ==" marker-start="url(#figure6_er-onlyOneStart)" marker-end="url(#figure6_er-zeroOrMoreEnd)"/><path d="M279.454,956L320.327,935.25C361.201,914.5,442.948,873,504.076,847.615C565.203,822.229,605.711,812.958,625.965,808.323L646.219,803.687" id="id_entity-public_sku_terms_versions-0_entity-private_payout_report_terms_versions-7_6" class="edge-thickness-normal edge-pattern-dashed relationshipLine" style="undefined;;;undefined" data-edge="true" data-et="edge" data-id="id_entity-public_sku_terms_versions-0_entity-private_payout_report_terms_versions-7_6" data-points="W3sieCI6Mjc5LjQ1Mzg0ODM3OTYyOTYsInkiOjk1Nn0seyJ4Ijo1MjQuNjk1MzEyNSwieSI6ODMxLjV9LHsieCI6NjQ2LjIxODc1LCJ5Ijo4MDMuNjg3MTYwNjA1MDE3MX1d" marker-start="url(#figure6_er-onlyOneStart)" marker-end="url(#figure6_er-zeroOrMoreEnd)"/><path d="M239.973,329L287.426,277.25C334.88,225.5,429.788,122,526.396,70.25C623.005,18.5,721.315,18.5,822.704,18.5C924.094,18.5,1028.563,18.5,1137.01,168.208C1245.457,317.917,1357.884,617.333,1414.097,767.042L1470.31,916.75" id="id_entity-public_company_payout_reports-2_entity-public_company_payout_report_components-8_7" class="edge-thickness-normal edge-pattern-dashed relationshipLine" style="undefined;;;undefined" data-edge="true" data-et="edge" data-id="id_entity-public_company_payout_reports-2_entity-public_company_payout_report_components-8_7" data-points="W3sieCI6MjM5Ljk3MjcyMzU5OTEzNzk0LCJ5IjozMjl9LHsieCI6NTI0LjY5NTMxMjUsInkiOjE4LjV9LHsieCI6ODE5LjYyNSwieSI6MTguNX0seyJ4IjoxMTMzLjAzMTI1LCJ5IjoxOC41fSx7IngiOjE0NzAuMzA5OTY2MTAzMzkzLCJ5Ijo5MTYuNzV9XQ==" marker-start="url(#figure6_er-onlyOneStart)" marker-end="url(#figure6_er-zeroOrMoreEnd)"/><path d="M993.031,764L1016.365,764C1039.698,764,1086.365,764,1156.715,789.458C1227.066,814.917,1321.1,865.833,1368.117,891.292L1415.135,916.75" id="id_entity-private_payout_report_terms_versions-7_entity-public_company_payout_report_components-8_8" class="edge-thickness-normal edge-pattern-dashed relationshipLine" style="undefined;;;undefined" data-edge="true" data-et="edge" data-id="id_entity-private_payout_report_terms_versions-7_entity-public_company_payout_report_components-8_8" data-points="W3sieCI6OTkzLjAzMTI1LCJ5Ijo3NjR9LHsieCI6MTEzMy4wMzEyNSwieSI6NzY0fSx7IngiOjE0MTUuMTM0NTA2NDA2MDQ0NywieSI6OTE2Ljc1fV0=" marker-start="url(#figure6_er-onlyOneStart)" marker-end="url(#figure6_er-zeroOrMoreEnd)"/><path d="M357.727,962.987L385.555,957.406C413.383,951.825,469.039,940.662,546.022,935.081C623.005,929.5,721.315,929.5,822.704,929.5C924.094,929.5,1028.563,929.5,1104.13,931.144C1179.698,932.787,1226.365,936.074,1249.698,937.718L1273.031,939.362" id="id_entity-public_sku_terms_versions-0_entity-public_company_payout_report_components-8_9" class="edge-thickness-normal edge-pattern-dashed relationshipLine" style="undefined;;;undefined" data-edge="true" data-et="edge" data-id="id_entity-public_sku_terms_versions-0_entity-public_company_payout_report_components-8_9" data-points="W3sieCI6MzU3LjcyNjU2MjUsInkiOjk2Mi45ODY5NTA5ODY2MzI3fSx7IngiOjUyNC42OTUzMTI1LCJ5Ijo5MjkuNX0seyJ4Ijo4MTkuNjI1LCJ5Ijo5MjkuNX0seyJ4IjoxMTMzLjAzMTI1LCJ5Ijo5MjkuNX0seyJ4IjoxMjczLjAzMTI1LCJ5Ijo5MzkuMzYxNjk3ODY5ODgwM31d" marker-start="url(#figure6_er-onlyOneStart)" marker-end="url(#figure6_er-zeroOrMoreEnd)"/><path d="M960.109,1057.5L988.93,1057.5C1017.75,1057.5,1075.391,1057.5,1141.502,1046.542C1207.614,1035.583,1282.196,1013.667,1319.487,1002.708L1356.778,991.75" id="id_entity-public_sku_fee_periods-1_entity-public_company_payout_report_components-8_10" class="edge-thickness-normal edge-pattern-dashed relationshipLine" style="undefined;;;undefined" data-edge="true" data-et="edge" data-id="id_entity-public_sku_fee_periods-1_entity-public_company_payout_report_components-8_10" data-points="W3sieCI6OTYwLjEwOTM3NSwieSI6MTA1Ny41fSx7IngiOjExMzMuMDMxMjUsInkiOjEwNTcuNX0seyJ4IjoxMzU2Ljc3ODI2MTE5ODU0NzIsInkiOjk5MS43NX1d" marker-start="url(#figure6_er-zeroOrOneStart)" marker-end="url(#figure6_er-zeroOrMoreEnd)"/></g><g class="edgeLabels"><g class="edgeLabel" transform="translate(524.6953125, 1057.5)"><g class="label" data-id="id_entity-public_sku_terms_versions-0_entity-public_sku_fee_periods-1_0" transform="translate(-53.3046875, -10.5)"><foreignObject width="106.609375" height="21"><div xmlns="http://www.w3.org/1999/xhtml" class="labelBkg" style="display: table-cell; white-space: nowrap; line-height: 1.5; max-width: 200px; text-align: center;"><span class="edgeLabel"><p>terms_version_id</p></span></div></foreignObject></g></g><g class="edgeLabel" transform="translate(440.82923, 182.20324)"><g class="label" data-id="id_entity-public_company_payout_reports-2_entity-private_payout_report_settlement_versions-3_1" transform="translate(-27.6328125, -10.5)"><foreignObject width="55.265625" height="21"><div xmlns="http://www.w3.org/1999/xhtml" class="labelBkg" style="display: table-cell; white-space: nowrap; line-height: 1.5; max-width: 200px; text-align: center;"><span class="edgeLabel"><p>report_id</p></span></div></foreignObject></g></g><g class="edgeLabel" transform="translate(482.02435, 207.12521)"><g class="label" data-id="id_entity-private_settlement_preprocess_versions-4_entity-private_payout_report_settlement_versions-3_2" transform="translate(-81.5234375, -10.5)"><foreignObject width="163.046875" height="21"><div xmlns="http://www.w3.org/1999/xhtml" class="labelBkg" style="display: table-cell; white-space: nowrap; line-height: 1.5; max-width: 200px; text-align: center;"><span class="edgeLabel"><p>settlement_id + version_id</p></span></div></foreignObject></g></g><g class="edgeLabel" transform="translate(524.6953125, 366.5)"><g class="label" data-id="id_entity-public_company_payout_reports-2_entity-private_payout_report_data_kiosk_versions-5_3" transform="translate(-27.6328125, -10.5)"><foreignObject width="55.265625" height="21"><div xmlns="http://www.w3.org/1999/xhtml" class="labelBkg" style="display: table-cell; white-space: nowrap; line-height: 1.5; max-width: 200px; text-align: center;"><span class="edgeLabel"><p>report_id</p></span></div></foreignObject></g></g><g class="edgeLabel" transform="translate(475.49202, 613.98625)"><g class="label" data-id="id_entity-private_data_kiosk_preprocess_versions-6_entity-private_payout_report_data_kiosk_versions-5_4" transform="translate(-60.515625, -10.5)"><foreignObject width="121.03125" height="21"><div xmlns="http://www.w3.org/1999/xhtml" class="labelBkg" style="display: table-cell; white-space: nowrap; line-height: 1.5; max-width: 200px; text-align: center;"><span class="edgeLabel"><p>day_id + version_id</p></span></div></foreignObject></g></g><g class="edgeLabel" transform="translate(437.17376, 564.62479)"><g class="label" data-id="id_entity-public_company_payout_reports-2_entity-private_payout_report_terms_versions-7_5" transform="translate(-27.6328125, -10.5)"><foreignObject width="55.265625" height="21"><div xmlns="http://www.w3.org/1999/xhtml" class="labelBkg" style="display: table-cell; white-space: nowrap; line-height: 1.5; max-width: 200px; text-align: center;"><span class="edgeLabel"><p>report_id</p></span></div></foreignObject></g></g><g class="edgeLabel" transform="translate(457.6553, 865.53373)"><g class="label" data-id="id_entity-public_sku_terms_versions-0_entity-private_payout_report_terms_versions-7_6" transform="translate(-81.515625, -10.5)"><foreignObject width="163.03125" height="21"><div xmlns="http://www.w3.org/1999/xhtml" class="labelBkg" style="display: table-cell; white-space: nowrap; line-height: 1.5; max-width: 200px; text-align: center;"><span class="edgeLabel"><p>sku_id + terms_version_id</p></span></div></foreignObject></g></g><g class="edgeLabel" transform="translate(819.625, 18.5)"><g class="label" data-id="id_entity-public_company_payout_reports-2_entity-public_company_payout_report_components-8_7" transform="translate(-27.6328125, -10.5)"><foreignObject width="55.265625" height="21"><div xmlns="http://www.w3.org/1999/xhtml" class="labelBkg" style="display: table-cell; white-space: nowrap; line-height: 1.5; max-width: 200px; text-align: center;"><span class="edgeLabel"><p>report_id</p></span></div></foreignObject></g></g><g class="edgeLabel" transform="translate(1133.03125, 764)"><g class="label" data-id="id_entity-private_payout_report_terms_versions-7_entity-public_company_payout_report_components-8_8" transform="translate(-88.90625, -10.5)"><foreignObject width="177.8125" height="21"><div xmlns="http://www.w3.org/1999/xhtml" class="labelBkg" style="display: table-cell; white-space: nowrap; line-height: 1.5; max-width: 200px; text-align: center;"><span class="edgeLabel"><p>report_id + terms_version_id</p></span></div></foreignObject></g></g><g class="edgeLabel" transform="translate(819.625, 929.5)"><g class="label" data-id="id_entity-public_sku_terms_versions-0_entity-public_company_payout_report_components-8_9" transform="translate(-81.515625, -10.5)"><foreignObject width="163.03125" height="21"><div xmlns="http://www.w3.org/1999/xhtml" class="labelBkg" style="display: table-cell; white-space: nowrap; line-height: 1.5; max-width: 200px; text-align: center;"><span class="edgeLabel"><p>sku_id + terms_version_id</p></span></div></foreignObject></g></g><g class="edgeLabel" transform="translate(1133.03125, 1057.5)"><g class="label" data-id="id_entity-public_sku_fee_periods-1_entity-public_company_payout_report_components-8_10" transform="translate(-100, -21)"><foreignObject width="200" height="42"><div xmlns="http://www.w3.org/1999/xhtml" class="labelBkg" style="display: table; white-space: break-spaces; line-height: 1.5; max-width: 200px; text-align: center; width: 200px;"><span class="edgeLabel"><p>terms_version_id + fee_period_id</p></span></div></foreignObject></g></g></g><g class="nodes"><g class="node default" id="entity-public_sku_terms_versions-0" transform="translate(205.5859375, 993.5)"><g style=""><path d="M-152.140625 -37.5 L152.140625 -37.5 L152.140625 37.5 L-152.140625 37.5" stroke="none" stroke-width="0" fill="#edf5f7"/><path d="M-152.140625 -37.5 C-35.50191686935686 -37.5, 81.13679126128628 -37.5, 152.140625 -37.5 M-152.140625 -37.5 C-81.37816585966912 -37.5, -10.615706719338249 -37.5, 152.140625 -37.5 M152.140625 -37.5 C152.140625 -12.784594715260688, 152.140625 11.930810569478624, 152.140625 37.5 M152.140625 -37.5 C152.140625 -17.527832994788845, 152.140625 2.4443340104223097, 152.140625 37.5 M152.140625 37.5 C90.30445797009952 37.5, 28.468290940199054 37.5, -152.140625 37.5 M152.140625 37.5 C51.002297999795346 37.5, -50.13602900040931 37.5, -152.140625 37.5 M-152.140625 37.5 C-152.140625 22.08071745488575, -152.140625 6.661434909771501, -152.140625 -37.5 M-152.140625 37.5 C-152.140625 16.426333049677126, -152.140625 -4.647333900645748, -152.140625 -37.5" stroke="#64818d" stroke-width="1.3" fill="none" stroke-dasharray="0 0"/></g><g style="" class="row-rect-odd"><path d="M-152.140625 0 L152.140625 0 L152.140625 37.5 L-152.140625 37.5" stroke="none" stroke-width="0" fill="hsl(192, 38.4615384615%, 100%)"/><path d="M-152.140625 0 C-61.87586897989331 0, 28.388887040213376 0, 152.140625 0 M-152.140625 0 C-30.91401802206535 0, 90.3125889558693 0, 152.140625 0 M152.140625 0 C152.140625 9.636475110090092, 152.140625 19.272950220180185, 152.140625 37.5 M152.140625 0 C152.140625 12.779397501087743, 152.140625 25.558795002175486, 152.140625 37.5 M152.140625 37.5 C30.958660101382563 37.5, -90.22330479723487 37.5, -152.140625 37.5 M152.140625 37.5 C36.41346339187247 37.5, -79.31369821625506 37.5, -152.140625 37.5 M-152.140625 37.5 C-152.140625 22.598857182353306, -152.140625 7.697714364706613, -152.140625 0 M-152.140625 37.5 C-152.140625 29.341886352284668, -152.140625 21.183772704569332, -152.140625 0" stroke="#64818d" stroke-width="1.3" fill="none" stroke-dasharray="0 0"/></g><g class="label name" transform="translate(-127.140625, -30)" style=""><foreignObject width="254.28125" height="22.5"><div xmlns="http://www.w3.org/1999/xhtml" style="display: table-cell; white-space: nowrap; line-height: 1.5; max-width: 345px; text-align: start;"><span class="nodeLabel"><p>public.sku_terms_versions (reference)</p></span></div></foreignObject></g><g class="label attribute-type" transform="translate(-139.640625, 7.5)" style=""><foreignObject width="67.5625" height="22.5"><div xmlns="http://www.w3.org/1999/xhtml" style="display: table-cell; white-space: nowrap; line-height: 1.5; max-width: 172px; text-align: start;"><span class="nodeLabel"><p>local_uuid</p></span></div></foreignObject></g><g class="label attribute-name" transform="translate(-26.2421875, 7.5)" style=""><foreignObject width="11.6875" height="22.5"><div xmlns="http://www.w3.org/1999/xhtml" style="display: table-cell; white-space: nowrap; line-height: 1.5; max-width: 112px; text-align: start;"><span class="nodeLabel"><p>id</p></span></div></foreignObject></g><g class="label attribute-keys" transform="translate(31.28125, 7.5)" style=""><foreignObject width="20.015625" height="22.5"><div xmlns="http://www.w3.org/1999/xhtml" style="display: table-cell; white-space: nowrap; line-height: 1.5; max-width: 121px; text-align: start;"><span class="nodeLabel"><p>PK</p></span></div></foreignObject></g><g class="label attribute-comment" transform="translate(97.1328125, 7.5)" style=""><foreignObject width="21.671875" height="22.5"><div xmlns="http://www.w3.org/1999/xhtml" style="display: table-cell; white-space: nowrap; line-height: 1.5; max-width: 124px; text-align: start;"><span class="nodeLabel"><p>NN</p></span></div></foreignObject></g><g class="divider"><path d="M-152.140625 0 C-81.14982332765135 0, -10.159021655302695 0, 152.140625 0 M-152.140625 0 C-33.32316693402005 0, 85.4942911319599 0, 152.140625 0" stroke="#64818d" stroke-width="1.3" fill="none" stroke-dasharray="0 0"/></g><g class="divider"><path d="M-38.7421875 0 C-38.7421875 8.285478326832036, -38.7421875 16.570956653664073, -38.7421875 37.5 M-38.7421875 0 C-38.7421875 13.527385077340433, -38.7421875 27.054770154680867, -38.7421875 37.5" stroke="#64818d" stroke-width="1.3" fill="none" stroke-dasharray="0 0"/></g><g class="divider"><path d="M18.78125 0 C18.78125 8.271789306728989, 18.78125 16.543578613457978, 18.78125 37.5 M18.78125 0 C18.78125 8.942313315730429, 18.78125 17.884626631460858, 18.78125 37.5" stroke="#64818d" stroke-width="1.3" fill="none" stroke-dasharray="0 0"/></g><g class="divider"><path d="M84.6328125 0 C84.6328125 10.770846758021793, 84.6328125 21.541693516043587, 84.6328125 37.5 M84.6328125 0 C84.6328125 10.599881171107222, 84.6328125 21.199762342214445, 84.6328125 37.5" stroke="#64818d" stroke-width="1.3" fill="none" stroke-dasharray="0 0"/></g><g class="divider"><path d="M-152.140625 0 C-66.57455974255986 0, 18.991505514880288 0, 152.140625 0 M-152.140625 0 C-77.76092507580378 0, -3.381225151607566 0, 152.140625 0" stroke="#64818d" stroke-width="1.3" fill="none" stroke-dasharray="0 0"/></g></g><g class="node default" id="entity-public_sku_fee_periods-1" transform="translate(819.625, 1057.5)"><g style=""><path d="M-140.484375 -37.5 L140.484375 -37.5 L140.484375 37.5 L-140.484375 37.5" stroke="none" stroke-width="0" fill="#edf5f7"/><path d="M-140.484375 -37.5 C-51.87236097608883 -37.5, 36.739653047822344 -37.5, 140.484375 -37.5 M-140.484375 -37.5 C-57.20498650302709 -37.5, 26.074401993945827 -37.5, 140.484375 -37.5 M140.484375 -37.5 C140.484375 -18.754550221762194, 140.484375 -0.00910044352438888, 140.484375 37.5 M140.484375 -37.5 C140.484375 -20.859708807079752, 140.484375 -4.219417614159504, 140.484375 37.5 M140.484375 37.5 C52.900642787876166 37.5, -34.68308942424767 37.5, -140.484375 37.5 M140.484375 37.5 C76.41350732277505 37.5, 12.342639645550094 37.5, -140.484375 37.5 M-140.484375 37.5 C-140.484375 16.232917563864497, -140.484375 -5.034164872271006, -140.484375 -37.5 M-140.484375 37.5 C-140.484375 19.021541687862747, -140.484375 0.5430833757254945, -140.484375 -37.5" stroke="#64818d" stroke-width="1.3" fill="none" stroke-dasharray="0 0"/></g><g style="" class="row-rect-odd"><path d="M-140.484375 0 L140.484375 0 L140.484375 37.5 L-140.484375 37.5" stroke="none" stroke-width="0" fill="hsl(192, 38.4615384615%, 100%)"/><path d="M-140.484375 0 C-29.20210825457856 0, 82.08015849084288 0, 140.484375 0 M-140.484375 0 C-45.51157384683701 0, 49.46122730632598 0, 140.484375 0 M140.484375 0 C140.484375 11.150716024432002, 140.484375 22.301432048864005, 140.484375 37.5 M140.484375 0 C140.484375 8.665192872317322, 140.484375 17.330385744634643, 140.484375 37.5 M140.484375 37.5 C54.20865414038364 37.5, -32.06706671923271 37.5, -140.484375 37.5 M140.484375 37.5 C82.46404300093744 37.5, 24.44371100187486 37.5, -140.484375 37.5 M-140.484375 37.5 C-140.484375 28.618693226641835, -140.484375 19.73738645328367, -140.484375 0 M-140.484375 37.5 C-140.484375 24.629827955659003, -140.484375 11.759655911318006, -140.484375 0" stroke="#64818d" stroke-width="1.3" fill="none" stroke-dasharray="0 0"/></g><g class="label name" transform="translate(-115.484375, -30)" style=""><foreignObject width="230.96875" height="22.5"><div xmlns="http://www.w3.org/1999/xhtml" style="display: table-cell; white-space: nowrap; line-height: 1.5; max-width: 323px; text-align: start;"><span class="nodeLabel"><p>public.sku_fee_periods (reference)</p></span></div></foreignObject></g><g class="label attribute-type" transform="translate(-127.984375, 7.5)" style=""><foreignObject width="67.5625" height="22.5"><div xmlns="http://www.w3.org/1999/xhtml" style="display: table-cell; white-space: nowrap; line-height: 1.5; max-width: 172px; text-align: start;"><span class="nodeLabel"><p>local_uuid</p></span></div></foreignObject></g><g class="label attribute-name" transform="translate(-20.4140625, 7.5)" style=""><foreignObject width="11.6875" height="22.5"><div xmlns="http://www.w3.org/1999/xhtml" style="display: table-cell; white-space: nowrap; line-height: 1.5; max-width: 112px; text-align: start;"><span class="nodeLabel"><p>id</p></span></div></foreignObject></g><g class="label attribute-keys" transform="translate(31.28125, 7.5)" style=""><foreignObject width="20.015625" height="22.5"><div xmlns="http://www.w3.org/1999/xhtml" style="display: table-cell; white-space: nowrap; line-height: 1.5; max-width: 121px; text-align: start;"><span class="nodeLabel"><p>PK</p></span></div></foreignObject></g><g class="label attribute-comment" transform="translate(91.3046875, 7.5)" style=""><foreignObject width="21.671875" height="22.5"><div xmlns="http://www.w3.org/1999/xhtml" style="display: table-cell; white-space: nowrap; line-height: 1.5; max-width: 124px; text-align: start;"><span class="nodeLabel"><p>NN</p></span></div></foreignObject></g><g class="divider"><path d="M-140.484375 0 C-75.60708499157381 0, -10.729794983147627 0, 140.484375 0 M-140.484375 0 C-29.297254873587647 0, 81.8898652528247 0, 140.484375 0" stroke="#64818d" stroke-width="1.3" fill="none" stroke-dasharray="0 0"/></g><g class="divider"><path d="M-32.9140625 0 C-32.9140625 8.295005900370024, -32.9140625 16.590011800740047, -32.9140625 37.5 M-32.9140625 0 C-32.9140625 10.184026673900625, -32.9140625 20.36805334780125, -32.9140625 37.5" stroke="#64818d" stroke-width="1.3" fill="none" stroke-dasharray="0 0"/></g><g class="divider"><path d="M18.78125 0 C18.78125 13.558222882849243, 18.78125 27.116445765698487, 18.78125 37.5 M18.78125 0 C18.78125 14.573753175414906, 18.78125 29.14750635082981, 18.78125 37.5" stroke="#64818d" stroke-width="1.3" fill="none" stroke-dasharray="0 0"/></g><g class="divider"><path d="M78.8046875 0 C78.8046875 7.717931163316502, 78.8046875 15.435862326633004, 78.8046875 37.5 M78.8046875 0 C78.8046875 9.991684971119993, 78.8046875 19.983369942239985, 78.8046875 37.5" stroke="#64818d" stroke-width="1.3" fill="none" stroke-dasharray="0 0"/></g><g class="divider"><path d="M-140.484375 0 C-30.674183621604712 0, 79.13600775679058 0, 140.484375 0 M-140.484375 0 C-51.068786289480315 0, 38.34680242103937 0, 140.484375 0" stroke="#64818d" stroke-width="1.3" fill="none" stroke-dasharray="0 0"/></g></g><g class="node default" id="entity-public_company_payout_reports-2" transform="translate(205.5859375, 366.5)"><g style=""><path d="M-170.078125 -37.5 L170.078125 -37.5 L170.078125 37.5 L-170.078125 37.5" stroke="none" stroke-width="0" fill="#edf5f7"/><path d="M-170.078125 -37.5 C-74.63451336062857 -37.5, 20.80909827874285 -37.5, 170.078125 -37.5 M-170.078125 -37.5 C-90.93064594256748 -37.5, -11.78316688513496 -37.5, 170.078125 -37.5 M170.078125 -37.5 C170.078125 -8.48935538145371, 170.078125 20.52128923709258, 170.078125 37.5 M170.078125 -37.5 C170.078125 -19.167861309512745, 170.078125 -0.8357226190254892, 170.078125 37.5 M170.078125 37.5 C48.6267626483792 37.5, -72.8245997032416 37.5, -170.078125 37.5 M170.078125 37.5 C72.13262768425271 37.5, -25.81286963149458 37.5, -170.078125 37.5 M-170.078125 37.5 C-170.078125 12.784531099153046, -170.078125 -11.930937801693908, -170.078125 -37.5 M-170.078125 37.5 C-170.078125 22.191426190530958, -170.078125 6.882852381061916, -170.078125 -37.5" stroke="#64818d" stroke-width="1.3" fill="none" stroke-dasharray="0 0"/></g><g style="" class="row-rect-odd"><path d="M-170.078125 0 L170.078125 0 L170.078125 37.5 L-170.078125 37.5" stroke="none" stroke-width="0" fill="hsl(192, 38.4615384615%, 100%)"/><path d="M-170.078125 0 C-55.393893258470186 0, 59.29033848305963 0, 170.078125 0 M-170.078125 0 C-80.20330797242184 0, 9.67150905515632 0, 170.078125 0 M170.078125 0 C170.078125 13.025435924460506, 170.078125 26.050871848921012, 170.078125 37.5 M170.078125 0 C170.078125 9.47893081631566, 170.078125 18.95786163263132, 170.078125 37.5 M170.078125 37.5 C41.518042505118416 37.5, -87.04203998976317 37.5, -170.078125 37.5 M170.078125 37.5 C50.291072309631176 37.5, -69.49598038073765 37.5, -170.078125 37.5 M-170.078125 37.5 C-170.078125 29.189466963965245, -170.078125 20.87893392793049, -170.078125 0 M-170.078125 37.5 C-170.078125 24.394654043612967, -170.078125 11.289308087225937, -170.078125 0" stroke="#64818d" stroke-width="1.3" fill="none" stroke-dasharray="0 0"/></g><g class="label name" transform="translate(-145.078125, -30)" style=""><foreignObject width="290.15625" height="22.5"><div xmlns="http://www.w3.org/1999/xhtml" style="display: table-cell; white-space: nowrap; line-height: 1.5; max-width: 381px; text-align: start;"><span class="nodeLabel"><p>public.company_payout_reports (reference)</p></span></div></foreignObject></g><g class="label attribute-type" transform="translate(-157.578125, 7.5)" style=""><foreignObject width="67.5625" height="22.5"><div xmlns="http://www.w3.org/1999/xhtml" style="display: table-cell; white-space: nowrap; line-height: 1.5; max-width: 172px; text-align: start;"><span class="nodeLabel"><p>local_uuid</p></span></div></foreignObject></g><g class="label attribute-name" transform="translate(-35.2109375, 7.5)" style=""><foreignObject width="11.6875" height="22.5"><div xmlns="http://www.w3.org/1999/xhtml" style="display: table-cell; white-space: nowrap; line-height: 1.5; max-width: 112px; text-align: start;"><span class="nodeLabel"><p>id</p></span></div></foreignObject></g><g class="label attribute-keys" transform="translate(31.28125, 7.5)" style=""><foreignObject width="20.015625" height="22.5"><div xmlns="http://www.w3.org/1999/xhtml" style="display: table-cell; white-space: nowrap; line-height: 1.5; max-width: 121px; text-align: start;"><span class="nodeLabel"><p>PK</p></span></div></foreignObject></g><g class="label attribute-comment" transform="translate(106.1015625, 7.5)" style=""><foreignObject width="21.671875" height="22.5"><div xmlns="http://www.w3.org/1999/xhtml" style="display: table-cell; white-space: nowrap; line-height: 1.5; max-width: 124px; text-align: start;"><span class="nodeLabel"><p>NN</p></span></div></foreignObject></g><g class="divider"><path d="M-170.078125 0 C-60.97408089387227 0, 48.12996321225546 0, 170.078125 0 M-170.078125 0 C-37.5901571894635 0, 94.897810621073 0, 170.078125 0" stroke="#64818d" stroke-width="1.3" fill="none" stroke-dasharray="0 0"/></g><g class="divider"><path d="M-47.7109375 0 C-47.7109375 11.92507154652158, -47.7109375 23.85014309304316, -47.7109375 37.5 M-47.7109375 0 C-47.7109375 11.590892923027349, -47.7109375 23.181785846054698, -47.7109375 37.5" stroke="#64818d" stroke-width="1.3" fill="none" stroke-dasharray="0 0"/></g><g class="divider"><path d="M18.78125 0 C18.78125 13.887426331656647, 18.78125 27.774852663313293, 18.78125 37.5 M18.78125 0 C18.78125 9.640999051497788, 18.78125 19.281998102995576, 18.78125 37.5" stroke="#64818d" stroke-width="1.3" fill="none" stroke-dasharray="0 0"/></g><g class="divider"><path d="M93.6015625 0 C93.6015625 14.260076795934033, 93.6015625 28.520153591868066, 93.6015625 37.5 M93.6015625 0 C93.6015625 10.576128824781367, 93.6015625 21.152257649562735, 93.6015625 37.5" stroke="#64818d" stroke-width="1.3" fill="none" stroke-dasharray="0 0"/></g><g class="divider"><path d="M-170.078125 0 C-55.49355407683507 0, 59.091016846329865 0, 170.078125 0 M-170.078125 0 C-79.58765142556841 0, 10.90282214886318 0, 170.078125 0" stroke="#64818d" stroke-width="1.3" fill="none" stroke-dasharray="0 0"/></g></g><g class="node default" id="entity-private_payout_report_settlement_versions-3" transform="translate(819.625, 184)"><g style=""><path d="M-166.75 -75 L166.75 -75 L166.75 75 L-166.75 75" stroke="none" stroke-width="0" fill="#edf5f7"/><path d="M-166.75 -75 C-95.55860858278162 -75, -24.367217165563233 -75, 166.75 -75 M-166.75 -75 C-58.28982983172877 -75, 50.170340336542466 -75, 166.75 -75 M166.75 -75 C166.75 -19.280434706815278, 166.75 36.439130586369444, 166.75 75 M166.75 -75 C166.75 -42.29877162381474, 166.75 -9.597543247629474, 166.75 75 M166.75 75 C35.1055360720741 75, -96.5389278558518 75, -166.75 75 M166.75 75 C96.77356633901164 75, 26.797132678023274 75, -166.75 75 M-166.75 75 C-166.75 26.11309563253107, -166.75 -22.77380873493786, -166.75 -75 M-166.75 75 C-166.75 33.758003899430186, -166.75 -7.483992201139628, -166.75 -75" stroke="#64818d" stroke-width="1.3" fill="none" stroke-dasharray="0 0"/></g><g style="" class="row-rect-odd"><path d="M-166.75 -37.5 L166.75 -37.5 L166.75 0 L-166.75 0" stroke="none" stroke-width="0" fill="hsl(192, 38.4615384615%, 100%)"/><path d="M-166.75 -37.5 C-76.48692378235172 -37.5, 13.776152435296552 -37.5, 166.75 -37.5 M-166.75 -37.5 C-98.36638265199082 -37.5, -29.982765303981637 -37.5, 166.75 -37.5 M166.75 -37.5 C166.75 -29.129099192214532, 166.75 -20.758198384429065, 166.75 0 M166.75 -37.5 C166.75 -24.630233992443586, 166.75 -11.760467984887171, 166.75 0 M166.75 0 C93.30662231784245 0, 19.863244635684907 0, -166.75 0 M166.75 0 C82.04296850239434 0, -2.66406299521131 0, -166.75 0 M-166.75 0 C-166.75 -8.6149587143457, -166.75 -17.2299174286914, -166.75 -37.5 M-166.75 0 C-166.75 -7.683832412167423, -166.75 -15.367664824334845, -166.75 -37.5" stroke="#64818d" stroke-width="1.3" fill="none" stroke-dasharray="0 0"/></g><g style="" class="row-rect-even"><path d="M-166.75 0 L166.75 0 L166.75 37.5 L-166.75 37.5" stroke="none" stroke-width="0" fill="hsl(192, 38.4615384615%, 99.9019607843%)"/><path d="M-166.75 0 C-39.74547719068889 0, 87.25904561862222 0, 166.75 0 M-166.75 0 C-37.84470017530512 0, 91.06059964938976 0, 166.75 0 M166.75 0 C166.75 8.18423114438974, 166.75 16.36846228877948, 166.75 37.5 M166.75 0 C166.75 12.246983485389022, 166.75 24.493966970778043, 166.75 37.5 M166.75 37.5 C48.6628138151417 37.5, -69.4243723697166 37.5, -166.75 37.5 M166.75 37.5 C40.98120790179976 37.5, -84.78758419640047 37.5, -166.75 37.5 M-166.75 37.5 C-166.75 26.398024035081363, -166.75 15.29604807016273, -166.75 0 M-166.75 37.5 C-166.75 22.66983661780339, -166.75 7.839673235606785, -166.75 0" stroke="#64818d" stroke-width="1.3" fill="none" stroke-dasharray="0 0"/></g><g style="" class="row-rect-odd"><path d="M-166.75 37.5 L166.75 37.5 L166.75 75 L-166.75 75" stroke="none" stroke-width="0" fill="hsl(192, 38.4615384615%, 100%)"/><path d="M-166.75 37.5 C-65.21536946943534 37.5, 36.31926106112931 37.5, 166.75 37.5 M-166.75 37.5 C-98.8776877509492 37.5, -31.005375501898413 37.5, 166.75 37.5 M166.75 37.5 C166.75 46.8967674603336, 166.75 56.2935349206672, 166.75 75 M166.75 37.5 C166.75 46.06475619147029, 166.75 54.629512382940575, 166.75 75 M166.75 75 C77.72379090661175 75, -11.302418186776492 75, -166.75 75 M166.75 75 C92.63263100669894 75, 18.515262013397887 75, -166.75 75 M-166.75 75 C-166.75 66.09420232976193, -166.75 57.18840465952386, -166.75 37.5 M-166.75 75 C-166.75 63.64527926901009, -166.75 52.29055853802017, -166.75 37.5" stroke="#64818d" stroke-width="1.3" fill="none" stroke-dasharray="0 0"/></g><g class="label name" transform="translate(-141.75, -67.5)" style=""><foreignObject width="283.5" height="22.5"><div xmlns="http://www.w3.org/1999/xhtml" style="display: table-cell; white-space: nowrap; line-height: 1.5; max-width: 373px; text-align: start;"><span class="nodeLabel"><p>private.payout_report_settlement_versions</p></span></div></foreignObject></g><g class="label attribute-type" transform="translate(-154.25, -30)" style=""><foreignObject width="67.5625" height="22.5"><div xmlns="http://www.w3.org/1999/xhtml" style="display: table-cell; white-space: nowrap; line-height: 1.5; max-width: 172px; text-align: start;"><span class="nodeLabel"><p>local_uuid</p></span></div></foreignObject></g><g class="label attribute-name" transform="translate(-58.765625, -30)" style=""><foreignObject width="59.203125" height="22.5"><div xmlns="http://www.w3.org/1999/xhtml" style="display: table-cell; white-space: nowrap; line-height: 1.5; max-width: 159px; text-align: start;"><span class="nodeLabel"><p>report_id</p></span></div></foreignObject></g><g class="label attribute-keys" transform="translate(58.375, -30)" style=""><foreignObject width="43.359375" height="22.5"><div xmlns="http://www.w3.org/1999/xhtml" style="display: table-cell; white-space: nowrap; line-height: 1.5; max-width: 145px; text-align: start;"><span class="nodeLabel"><p>PK,FK</p></span></div></foreignObject></g><g class="label attribute-comment" transform="translate(129.65625, -30)" style=""><foreignObject width="21.671875" height="22.5"><div xmlns="http://www.w3.org/1999/xhtml" style="display: table-cell; white-space: nowrap; line-height: 1.5; max-width: 124px; text-align: start;"><span class="nodeLabel"><p>NN</p></span></div></foreignObject></g><g class="label attribute-type" transform="translate(-154.25, 7.5)" style=""><foreignObject width="67.5625" height="22.5"><div xmlns="http://www.w3.org/1999/xhtml" style="display: table-cell; white-space: nowrap; line-height: 1.5; max-width: 172px; text-align: start;"><span class="nodeLabel"><p>local_uuid</p></span></div></foreignObject></g><g class="label attribute-name" transform="translate(-58.765625, 7.5)" style=""><foreignObject width="89.21875" height="22.5"><div xmlns="http://www.w3.org/1999/xhtml" style="display: table-cell; white-space: nowrap; line-height: 1.5; max-width: 195px; text-align: start;"><span class="nodeLabel"><p>settlement_id</p></span></div></foreignObject></g><g class="label attribute-keys" transform="translate(58.375, 7.5)" style=""><foreignObject width="43.359375" height="22.5"><div xmlns="http://www.w3.org/1999/xhtml" style="display: table-cell; white-space: nowrap; line-height: 1.5; max-width: 145px; text-align: start;"><span class="nodeLabel"><p>PK,FK</p></span></div></foreignObject></g><g class="label attribute-comment" transform="translate(129.65625, 7.5)" style=""><foreignObject width="21.671875" height="22.5"><div xmlns="http://www.w3.org/1999/xhtml" style="display: table-cell; white-space: nowrap; line-height: 1.5; max-width: 124px; text-align: start;"><span class="nodeLabel"><p>NN</p></span></div></foreignObject></g><g class="label attribute-type" transform="translate(-154.25, 45)" style=""><foreignObject width="67.5625" height="22.5"><div xmlns="http://www.w3.org/1999/xhtml" style="display: table-cell; white-space: nowrap; line-height: 1.5; max-width: 172px; text-align: start;"><span class="nodeLabel"><p>local_uuid</p></span></div></foreignObject></g><g class="label attribute-name" transform="translate(-58.765625, 45)" style=""><foreignObject width="68.375" height="22.5"><div xmlns="http://www.w3.org/1999/xhtml" style="display: table-cell; white-space: nowrap; line-height: 1.5; max-width: 173px; text-align: start;"><span class="nodeLabel"><p>version_id</p></span></div></foreignObject></g><g class="label attribute-keys" transform="translate(58.375, 45)" style=""><foreignObject width="19.171875" height="22.5"><div xmlns="http://www.w3.org/1999/xhtml" style="display: table-cell; white-space: nowrap; line-height: 1.5; max-width: 121px; text-align: start;"><span class="nodeLabel"><p>FK</p></span></div></foreignObject></g><g class="label attribute-comment" transform="translate(129.65625, 45)" style=""><foreignObject width="21.671875" height="22.5"><div xmlns="http://www.w3.org/1999/xhtml" style="display: table-cell; white-space: nowrap; line-height: 1.5; max-width: 124px; text-align: start;"><span class="nodeLabel"><p>NN</p></span></div></foreignObject></g><g class="divider"><path d="M-166.75 -37.5 C-74.2269041767931 -37.5, 18.296191646413803 -37.5, 166.75 -37.5 M-166.75 -37.5 C-50.56423791745631 -37.5, 65.62152416508738 -37.5, 166.75 -37.5" stroke="#64818d" stroke-width="1.3" fill="none" stroke-dasharray="0 0"/></g><g class="divider"><path d="M-71.265625 -37.5 C-71.265625 -11.10468875188258, -71.265625 15.290622496234839, -71.265625 75 M-71.265625 -37.5 C-71.265625 7.412822923392859, -71.265625 52.32564584678572, -71.265625 75" stroke="#64818d" stroke-width="1.3" fill="none" stroke-dasharray="0 0"/></g><g class="divider"><path d="M45.875 -37.5 C45.875 -4.365379719477517, 45.875 28.769240561044967, 45.875 75 M45.875 -37.5 C45.875 -5.862157200085804, 45.875 25.775685599828392, 45.875 75" stroke="#64818d" stroke-width="1.3" fill="none" stroke-dasharray="0 0"/></g><g class="divider"><path d="M117.15625 -37.5 C117.15625 -12.557748914812802, 117.15625 12.384502170374397, 117.15625 75 M117.15625 -37.5 C117.15625 -7.739465752797795, 117.15625 22.02106849440441, 117.15625 75" stroke="#64818d" stroke-width="1.3" fill="none" stroke-dasharray="0 0"/></g><g class="divider"><path d="M-166.75 -37.5 C-55.72490795976398 -37.5, 55.300184080472036 -37.5, 166.75 -37.5 M-166.75 -37.5 C-66.00925513916985 -37.5, 34.731489721660296 -37.5, 166.75 -37.5" stroke="#64818d" stroke-width="1.3" fill="none" stroke-dasharray="0 0"/></g></g><g class="node default" id="entity-private_settlement_preprocess_versions-4" transform="translate(205.5859375, 114)"><g style=""><path d="M-196.328125 -37.5 L196.328125 -37.5 L196.328125 37.5 L-196.328125 37.5" stroke="none" stroke-width="0" fill="#edf5f7"/><path d="M-196.328125 -37.5 C-68.17867101102644 -37.5, 59.970782977947124 -37.5, 196.328125 -37.5 M-196.328125 -37.5 C-94.09654482432029 -37.5, 8.13503535135942 -37.5, 196.328125 -37.5 M196.328125 -37.5 C196.328125 -9.35549955103836, 196.328125 18.78900089792328, 196.328125 37.5 M196.328125 -37.5 C196.328125 -15.728871319467096, 196.328125 6.042257361065808, 196.328125 37.5 M196.328125 37.5 C105.65957443897832 37.5, 14.99102387795665 37.5, -196.328125 37.5 M196.328125 37.5 C76.84905380752977 37.5, -42.63001738494046 37.5, -196.328125 37.5 M-196.328125 37.5 C-196.328125 9.177733432692502, -196.328125 -19.144533134614996, -196.328125 -37.5 M-196.328125 37.5 C-196.328125 12.33608647908952, -196.328125 -12.82782704182096, -196.328125 -37.5" stroke="#64818d" stroke-width="1.3" fill="none" stroke-dasharray="0 0"/></g><g style="" class="row-rect-odd"><path d="M-196.328125 0 L196.328125 0 L196.328125 37.5 L-196.328125 37.5" stroke="none" stroke-width="0" fill="hsl(192, 38.4615384615%, 100%)"/><path d="M-196.328125 0 C-95.61045741278143 0, 5.107210174437142 0, 196.328125 0 M-196.328125 0 C-95.4881988000243 0, 5.351727399951386 0, 196.328125 0 M196.328125 0 C196.328125 7.658122553415315, 196.328125 15.31624510683063, 196.328125 37.5 M196.328125 0 C196.328125 14.303243055292212, 196.328125 28.606486110584424, 196.328125 37.5 M196.328125 37.5 C86.32573464058089 37.5, -23.67665571883822 37.5, -196.328125 37.5 M196.328125 37.5 C90.36368138336294 37.5, -15.60076223327411 37.5, -196.328125 37.5 M-196.328125 37.5 C-196.328125 28.91695777204388, -196.328125 20.333915544087755, -196.328125 0 M-196.328125 37.5 C-196.328125 25.174810891477044, -196.328125 12.849621782954085, -196.328125 0" stroke="#64818d" stroke-width="1.3" fill="none" stroke-dasharray="0 0"/></g><g class="label name" transform="translate(-171.328125, -30)" style=""><foreignObject width="342.65625" height="22.5"><div xmlns="http://www.w3.org/1999/xhtml" style="display: table-cell; white-space: nowrap; line-height: 1.5; max-width: 426px; text-align: start;"><span class="nodeLabel"><p>private.settlement_preprocess_versions (reference)</p></span></div></foreignObject></g><g class="label attribute-type" transform="translate(-183.828125, 7.5)" style=""><foreignObject width="67.5625" height="22.5"><div xmlns="http://www.w3.org/1999/xhtml" style="display: table-cell; white-space: nowrap; line-height: 1.5; max-width: 172px; text-align: start;"><span class="nodeLabel"><p>local_uuid</p></span></div></foreignObject></g><g class="label attribute-name" transform="translate(-48.3359375, 7.5)" style=""><foreignObject width="11.6875" height="22.5"><div xmlns="http://www.w3.org/1999/xhtml" style="display: table-cell; white-space: nowrap; line-height: 1.5; max-width: 112px; text-align: start;"><span class="nodeLabel"><p>id</p></span></div></foreignObject></g><g class="label attribute-keys" transform="translate(31.28125, 7.5)" style=""><foreignObject width="20.015625" height="22.5"><div xmlns="http://www.w3.org/1999/xhtml" style="display: table-cell; white-space: nowrap; line-height: 1.5; max-width: 121px; text-align: start;"><span class="nodeLabel"><p>PK</p></span></div></foreignObject></g><g class="label attribute-comment" transform="translate(119.2265625, 7.5)" style=""><foreignObject width="21.671875" height="22.5"><div xmlns="http://www.w3.org/1999/xhtml" style="display: table-cell; white-space: nowrap; line-height: 1.5; max-width: 124px; text-align: start;"><span class="nodeLabel"><p>NN</p></span></div></foreignObject></g><g class="divider"><path d="M-196.328125 0 C-92.30894438326375 0, 11.7102362334725 0, 196.328125 0 M-196.328125 0 C-88.704156083868 0, 18.919812832264 0, 196.328125 0" stroke="#64818d" stroke-width="1.3" fill="none" stroke-dasharray="0 0"/></g><g class="divider"><path d="M-60.8359375 0 C-60.8359375 12.594861389745972, -60.8359375 25.189722779491944, -60.8359375 37.5 M-60.8359375 0 C-60.8359375 14.076318614103645, -60.8359375 28.15263722820729, -60.8359375 37.5" stroke="#64818d" stroke-width="1.3" fill="none" stroke-dasharray="0 0"/></g><g class="divider"><path d="M18.78125 0 C18.78125 11.376545319542137, 18.78125 22.753090639084274, 18.78125 37.5 M18.78125 0 C18.78125 11.479755002272354, 18.78125 22.959510004544708, 18.78125 37.5" stroke="#64818d" stroke-width="1.3" fill="none" stroke-dasharray="0 0"/></g><g class="divider"><path d="M106.7265625 0 C106.7265625 13.292332787563083, 106.7265625 26.584665575126166, 106.7265625 37.5 M106.7265625 0 C106.7265625 12.783501899761237, 106.7265625 25.567003799522475, 106.7265625 37.5" stroke="#64818d" stroke-width="1.3" fill="none" stroke-dasharray="0 0"/></g><g class="divider"><path d="M-196.328125 0 C-82.46174757469768 0, 31.404629850604636 0, 196.328125 0 M-196.328125 0 C-102.96650968268851 0, -9.604894365377021 0, 196.328125 0" stroke="#64818d" stroke-width="1.3" fill="none" stroke-dasharray="0 0"/></g></g><g class="node default" id="entity-private_payout_report_data_kiosk_versions-5" transform="translate(819.625, 474)"><g style=""><path d="M-168.0078125 -75 L168.0078125 -75 L168.0078125 75 L-168.0078125 75" stroke="none" stroke-width="0" fill="#edf5f7"/><path d="M-168.0078125 -75 C-56.66563355839071 -75, 54.67654538321858 -75, 168.0078125 -75 M-168.0078125 -75 C-43.57729702928697 -75, 80.85321844142607 -75, 168.0078125 -75 M168.0078125 -75 C168.0078125 -17.596044441892303, 168.0078125 39.807911116215394, 168.0078125 75 M168.0078125 -75 C168.0078125 -29.595687807238704, 168.0078125 15.808624385522592, 168.0078125 75 M168.0078125 75 C58.90942068489028 75, -50.18897113021944 75, -168.0078125 75 M168.0078125 75 C47.991204223746095 75, -72.02540405250781 75, -168.0078125 75 M-168.0078125 75 C-168.0078125 37.27250910910057, -168.0078125 -0.45498178179886395, -168.0078125 -75 M-168.0078125 75 C-168.0078125 25.0265835382718, -168.0078125 -24.946832923456398, -168.0078125 -75" stroke="#64818d" stroke-width="1.3" fill="none" stroke-dasharray="0 0"/></g><g style="" class="row-rect-odd"><path d="M-168.0078125 -37.5 L168.0078125 -37.5 L168.0078125 0 L-168.0078125 0" stroke="none" stroke-width="0" fill="hsl(192, 38.4615384615%, 100%)"/><path d="M-168.0078125 -37.5 C-35.38733384544898 -37.5, 97.23314480910204 -37.5, 168.0078125 -37.5 M-168.0078125 -37.5 C-37.05620249456649 -37.5, 93.89540751086702 -37.5, 168.0078125 -37.5 M168.0078125 -37.5 C168.0078125 -23.844402032403995, 168.0078125 -10.18880406480799, 168.0078125 0 M168.0078125 -37.5 C168.0078125 -24.629333679467337, 168.0078125 -11.758667358934673, 168.0078125 0 M168.0078125 0 C60.38664611472224 0, -47.23452027055552 0, -168.0078125 0 M168.0078125 0 C35.739878639120036 0, -96.52805522175993 0, -168.0078125 0 M-168.0078125 0 C-168.0078125 -11.653026840889876, -168.0078125 -23.30605368177975, -168.0078125 -37.5 M-168.0078125 0 C-168.0078125 -8.77919151737391, -168.0078125 -17.55838303474782, -168.0078125 -37.5" stroke="#64818d" stroke-width="1.3" fill="none" stroke-dasharray="0 0"/></g><g style="" class="row-rect-even"><path d="M-168.0078125 0 L168.0078125 0 L168.0078125 37.5 L-168.0078125 37.5" stroke="none" stroke-width="0" fill="hsl(192, 38.4615384615%, 99.9019607843%)"/><path d="M-168.0078125 0 C-38.52665889481153 0, 90.95449471037693 0, 168.0078125 0 M-168.0078125 0 C-86.89966318031098 0, -5.791513860621961 0, 168.0078125 0 M168.0078125 0 C168.0078125 11.025361303853167, 168.0078125 22.050722607706334, 168.0078125 37.5 M168.0078125 0 C168.0078125 12.605334870271111, 168.0078125 25.210669740542222, 168.0078125 37.5 M168.0078125 37.5 C66.17061153415297 37.5, -35.666589431694064 37.5, -168.0078125 37.5 M168.0078125 37.5 C90.45041508190589 37.5, 12.893017663811776 37.5, -168.0078125 37.5 M-168.0078125 37.5 C-168.0078125 27.708810437713204, -168.0078125 17.917620875426405, -168.0078125 0 M-168.0078125 37.5 C-168.0078125 28.965385129626263, -168.0078125 20.43077025925253, -168.0078125 0" stroke="#64818d" stroke-width="1.3" fill="none" stroke-dasharray="0 0"/></g><g style="" class="row-rect-odd"><path d="M-168.0078125 37.5 L168.0078125 37.5 L168.0078125 75 L-168.0078125 75" stroke="none" stroke-width="0" fill="hsl(192, 38.4615384615%, 100%)"/><path d="M-168.0078125 37.5 C-54.09723229088071 37.5, 59.81334791823858 37.5, 168.0078125 37.5 M-168.0078125 37.5 C-68.27239751533031 37.5, 31.463017469339377 37.5, 168.0078125 37.5 M168.0078125 37.5 C168.0078125 45.31232986610357, 168.0078125 53.12465973220713, 168.0078125 75 M168.0078125 37.5 C168.0078125 47.49354899571109, 168.0078125 57.487097991422175, 168.0078125 75 M168.0078125 75 C34.21575585274164 75, -99.57630079451673 75, -168.0078125 75 M168.0078125 75 C66.17004058756793 75, -35.66773132486415 75, -168.0078125 75 M-168.0078125 75 C-168.0078125 60.42260977247076, -168.0078125 45.845219544941514, -168.0078125 37.5 M-168.0078125 75 C-168.0078125 61.81113731079382, -168.0078125 48.622274621587636, -168.0078125 37.5" stroke="#64818d" stroke-width="1.3" fill="none" stroke-dasharray="0 0"/></g><g class="label name" transform="translate(-143.0078125, -67.5)" style=""><foreignObject width="286.015625" height="22.5"><div xmlns="http://www.w3.org/1999/xhtml" style="display: table-cell; white-space: nowrap; line-height: 1.5; max-width: 377px; text-align: start;"><span class="nodeLabel"><p>private.payout_report_data_kiosk_versions</p></span></div></foreignObject></g><g class="label attribute-type" transform="translate(-155.5078125, -30)" style=""><foreignObject width="67.5625" height="22.5"><div xmlns="http://www.w3.org/1999/xhtml" style="display: table-cell; white-space: nowrap; line-height: 1.5; max-width: 172px; text-align: start;"><span class="nodeLabel"><p>local_uuid</p></span></div></foreignObject></g><g class="label attribute-name" transform="translate(-54.18359375, -30)" style=""><foreignObject width="59.203125" height="22.5"><div xmlns="http://www.w3.org/1999/xhtml" style="display: table-cell; white-space: nowrap; line-height: 1.5; max-width: 159px; text-align: start;"><span class="nodeLabel"><p>report_id</p></span></div></foreignObject></g><g class="label attribute-keys" transform="translate(47.953125, -30)" style=""><foreignObject width="43.359375" height="22.5"><div xmlns="http://www.w3.org/1999/xhtml" style="display: table-cell; white-space: nowrap; line-height: 1.5; max-width: 145px; text-align: start;"><span class="nodeLabel"><p>PK,FK</p></span></div></foreignObject></g><g class="label attribute-comment" transform="translate(125.07421875, -30)" style=""><foreignObject width="21.671875" height="22.5"><div xmlns="http://www.w3.org/1999/xhtml" style="display: table-cell; white-space: nowrap; line-height: 1.5; max-width: 124px; text-align: start;"><span class="nodeLabel"><p>NN</p></span></div></foreignObject></g><g class="label attribute-type" transform="translate(-155.5078125, 7.5)" style=""><foreignObject width="67.5625" height="22.5"><div xmlns="http://www.w3.org/1999/xhtml" style="display: table-cell; white-space: nowrap; line-height: 1.5; max-width: 172px; text-align: start;"><span class="nodeLabel"><p>local_uuid</p></span></div></foreignObject></g><g class="label attribute-name" transform="translate(-54.18359375, 7.5)" style=""><foreignObject width="44.203125" height="22.5"><div xmlns="http://www.w3.org/1999/xhtml" style="display: table-cell; white-space: nowrap; line-height: 1.5; max-width: 144px; text-align: start;"><span class="nodeLabel"><p>day_id</p></span></div></foreignObject></g><g class="label attribute-keys" transform="translate(47.953125, 7.5)" style=""><foreignObject width="43.359375" height="22.5"><div xmlns="http://www.w3.org/1999/xhtml" style="display: table-cell; white-space: nowrap; line-height: 1.5; max-width: 145px; text-align: start;"><span class="nodeLabel"><p>PK,FK</p></span></div></foreignObject></g><g class="label attribute-comment" transform="translate(125.07421875, 7.5)" style=""><foreignObject width="21.671875" height="22.5"><div xmlns="http://www.w3.org/1999/xhtml" style="display: table-cell; white-space: nowrap; line-height: 1.5; max-width: 124px; text-align: start;"><span class="nodeLabel"><p>NN</p></span></div></foreignObject></g><g class="label attribute-type" transform="translate(-155.5078125, 45)" style=""><foreignObject width="67.5625" height="22.5"><div xmlns="http://www.w3.org/1999/xhtml" style="display: table-cell; white-space: nowrap; line-height: 1.5; max-width: 172px; text-align: start;"><span class="nodeLabel"><p>local_uuid</p></span></div></foreignObject></g><g class="label attribute-name" transform="translate(-54.18359375, 45)" style=""><foreignObject width="68.375" height="22.5"><div xmlns="http://www.w3.org/1999/xhtml" style="display: table-cell; white-space: nowrap; line-height: 1.5; max-width: 173px; text-align: start;"><span class="nodeLabel"><p>version_id</p></span></div></foreignObject></g><g class="label attribute-keys" transform="translate(47.953125, 45)" style=""><foreignObject width="19.171875" height="22.5"><div xmlns="http://www.w3.org/1999/xhtml" style="display: table-cell; white-space: nowrap; line-height: 1.5; max-width: 121px; text-align: start;"><span class="nodeLabel"><p>FK</p></span></div></foreignObject></g><g class="label attribute-comment" transform="translate(125.07421875, 45)" style=""><foreignObject width="21.671875" height="22.5"><div xmlns="http://www.w3.org/1999/xhtml" style="display: table-cell; white-space: nowrap; line-height: 1.5; max-width: 124px; text-align: start;"><span class="nodeLabel"><p>NN</p></span></div></foreignObject></g><g class="divider"><path d="M-168.0078125 -37.5 C-99.97124159881301 -37.5, -31.934670697626018 -37.5, 168.0078125 -37.5 M-168.0078125 -37.5 C-50.590998479202625 -37.5, 66.82581554159475 -37.5, 168.0078125 -37.5" stroke="#64818d" stroke-width="1.3" fill="none" stroke-dasharray="0 0"/></g><g class="divider"><path d="M-66.68359375 -37.5 C-66.68359375 -3.184451203124908, -66.68359375 31.131097593750184, -66.68359375 75 M-66.68359375 -37.5 C-66.68359375 -11.118605196088001, -66.68359375 15.262789607823997, -66.68359375 75" stroke="#64818d" stroke-width="1.3" fill="none" stroke-dasharray="0 0"/></g><g class="divider"><path d="M35.453125 -37.5 C35.453125 -5.809000897366069, 35.453125 25.881998205267863, 35.453125 75 M35.453125 -37.5 C35.453125 0.6116730394980436, 35.453125 38.72334607899609, 35.453125 75" stroke="#64818d" stroke-width="1.3" fill="none" stroke-dasharray="0 0"/></g><g class="divider"><path d="M112.57421875 -37.5 C112.57421875 -7.866395489382704, 112.57421875 21.767209021234592, 112.57421875 75 M112.57421875 -37.5 C112.57421875 3.874503982494012, 112.57421875 45.249007964988024, 112.57421875 75" stroke="#64818d" stroke-width="1.3" fill="none" stroke-dasharray="0 0"/></g><g class="divider"><path d="M-168.0078125 -37.5 C-94.23015783869953 -37.5, -20.452503177399052 -37.5, 168.0078125 -37.5 M-168.0078125 -37.5 C-81.17603359676002 -37.5, 5.655745306479957 -37.5, 168.0078125 -37.5" stroke="#64818d" stroke-width="1.3" fill="none" stroke-dasharray="0 0"/></g></g><g class="node default" id="entity-private_data_kiosk_preprocess_versions-6" transform="translate(205.5859375, 722.25)"><g style=""><path d="M-197.5859375 -37.5 L197.5859375 -37.5 L197.5859375 37.5 L-197.5859375 37.5" stroke="none" stroke-width="0" fill="#edf5f7"/><path d="M-197.5859375 -37.5 C-109.25922783533416 -37.5, -20.932518170668317 -37.5, 197.5859375 -37.5 M-197.5859375 -37.5 C-63.418846897555 -37.5, 70.74824370489 -37.5, 197.5859375 -37.5 M197.5859375 -37.5 C197.5859375 -10.681851443726174, 197.5859375 16.136297112547652, 197.5859375 37.5 M197.5859375 -37.5 C197.5859375 -20.56025789866071, 197.5859375 -3.620515797321417, 197.5859375 37.5 M197.5859375 37.5 C43.24346638401772 37.5, -111.09900473196456 37.5, -197.5859375 37.5 M197.5859375 37.5 C56.533940270049754 37.5, -84.51805695990049 37.5, -197.5859375 37.5 M-197.5859375 37.5 C-197.5859375 18.163420543872423, -197.5859375 -1.173158912255154, -197.5859375 -37.5 M-197.5859375 37.5 C-197.5859375 21.85957784332693, -197.5859375 6.21915568665386, -197.5859375 -37.5" stroke="#64818d" stroke-width="1.3" fill="none" stroke-dasharray="0 0"/></g><g style="" class="row-rect-odd"><path d="M-197.5859375 0 L197.5859375 0 L197.5859375 37.5 L-197.5859375 37.5" stroke="none" stroke-width="0" fill="hsl(192, 38.4615384615%, 100%)"/><path d="M-197.5859375 0 C-63.24907909274242 0, 71.08777931451516 0, 197.5859375 0 M-197.5859375 0 C-105.85861094396049 0, -14.13128438792097 0, 197.5859375 0 M197.5859375 0 C197.5859375 10.049516830122318, 197.5859375 20.099033660244636, 197.5859375 37.5 M197.5859375 0 C197.5859375 10.34348615068523, 197.5859375 20.68697230137046, 197.5859375 37.5 M197.5859375 37.5 C99.68032833083487 37.5, 1.7747191616697364 37.5, -197.5859375 37.5 M197.5859375 37.5 C111.82732538306948 37.5, 26.068713266138957 37.5, -197.5859375 37.5 M-197.5859375 37.5 C-197.5859375 27.21891197060757, -197.5859375 16.937823941215147, -197.5859375 0 M-197.5859375 37.5 C-197.5859375 29.9731094232665, -197.5859375 22.446218846533, -197.5859375 0" stroke="#64818d" stroke-width="1.3" fill="none" stroke-dasharray="0 0"/></g><g class="label name" transform="translate(-172.5859375, -30)" style=""><foreignObject width="345.171875" height="22.5"><div xmlns="http://www.w3.org/1999/xhtml" style="display: table-cell; white-space: nowrap; line-height: 1.5; max-width: 430px; text-align: start;"><span class="nodeLabel"><p>private.data_kiosk_preprocess_versions (reference)</p></span></div></foreignObject></g><g class="label attribute-type" transform="translate(-185.0859375, 7.5)" style=""><foreignObject width="67.5625" height="22.5"><div xmlns="http://www.w3.org/1999/xhtml" style="display: table-cell; white-space: nowrap; line-height: 1.5; max-width: 172px; text-align: start;"><span class="nodeLabel"><p>local_uuid</p></span></div></foreignObject></g><g class="label attribute-name" transform="translate(-48.96484375, 7.5)" style=""><foreignObject width="11.6875" height="22.5"><div xmlns="http://www.w3.org/1999/xhtml" style="display: table-cell; white-space: nowrap; line-height: 1.5; max-width: 112px; text-align: start;"><span class="nodeLabel"><p>id</p></span></div></foreignObject></g><g class="label attribute-keys" transform="translate(31.28125, 7.5)" style=""><foreignObject width="20.015625" height="22.5"><div xmlns="http://www.w3.org/1999/xhtml" style="display: table-cell; white-space: nowrap; line-height: 1.5; max-width: 121px; text-align: start;"><span class="nodeLabel"><p>PK</p></span></div></foreignObject></g><g class="label attribute-comment" transform="translate(119.85546875, 7.5)" style=""><foreignObject width="21.671875" height="22.5"><div xmlns="http://www.w3.org/1999/xhtml" style="display: table-cell; white-space: nowrap; line-height: 1.5; max-width: 124px; text-align: start;"><span class="nodeLabel"><p>NN</p></span></div></foreignObject></g><g class="divider"><path d="M-197.5859375 0 C-61.01411747505438 0, 75.55770254989125 0, 197.5859375 0 M-197.5859375 0 C-76.00632809671296 0, 45.573281306574074 0, 197.5859375 0" stroke="#64818d" stroke-width="1.3" fill="none" stroke-dasharray="0 0"/></g><g class="divider"><path d="M-61.46484375 0 C-61.46484375 12.315756305385337, -61.46484375 24.631512610770674, -61.46484375 37.5 M-61.46484375 0 C-61.46484375 14.45393373586221, -61.46484375 28.90786747172442, -61.46484375 37.5" stroke="#64818d" stroke-width="1.3" fill="none" stroke-dasharray="0 0"/></g><g class="divider"><path d="M18.78125 0 C18.78125 9.36621796381415, 18.78125 18.7324359276283, 18.78125 37.5 M18.78125 0 C18.78125 13.899392484385793, 18.78125 27.798784968771585, 18.78125 37.5" stroke="#64818d" stroke-width="1.3" fill="none" stroke-dasharray="0 0"/></g><g class="divider"><path d="M107.35546875 0 C107.35546875 12.037823863065137, 107.35546875 24.075647726130274, 107.35546875 37.5 M107.35546875 0 C107.35546875 10.923169187616054, 107.35546875 21.846338375232108, 107.35546875 37.5" stroke="#64818d" stroke-width="1.3" fill="none" stroke-dasharray="0 0"/></g><g class="divider"><path d="M-197.5859375 0 C-86.6162265869245 0, 24.353484326151005 0, 197.5859375 0 M-197.5859375 0 C-48.81996021578695 0, 99.9460170684261 0, 197.5859375 0" stroke="#64818d" stroke-width="1.3" fill="none" stroke-dasharray="0 0"/></g></g><g class="node default" id="entity-private_payout_report_terms_versions-7" transform="translate(819.625, 764)"><g style=""><path d="M-173.40625 -75 L173.40625 -75 L173.40625 75 L-173.40625 75" stroke="none" stroke-width="0" fill="#edf5f7"/><path d="M-173.40625 -75 C-68.71735553206548 -75, 35.971538935869035 -75, 173.40625 -75 M-173.40625 -75 C-48.78952203817087 -75, 75.82720592365825 -75, 173.40625 -75 M173.40625 -75 C173.40625 -39.16269006487419, 173.40625 -3.325380129748382, 173.40625 75 M173.40625 -75 C173.40625 -38.780225922474195, 173.40625 -2.560451844948389, 173.40625 75 M173.40625 75 C66.00610007748459 75, -41.39404984503082 75, -173.40625 75 M173.40625 75 C84.40965345678123 75, -4.586943086437543 75, -173.40625 75 M-173.40625 75 C-173.40625 41.080677825998826, -173.40625 7.161355651997653, -173.40625 -75 M-173.40625 75 C-173.40625 38.910962990796996, -173.40625 2.821925981593992, -173.40625 -75" stroke="#64818d" stroke-width="1.3" fill="none" stroke-dasharray="0 0"/></g><g style="" class="row-rect-odd"><path d="M-173.40625 -37.5 L173.40625 -37.5 L173.40625 0 L-173.40625 0" stroke="none" stroke-width="0" fill="hsl(192, 38.4615384615%, 100%)"/><path d="M-173.40625 -37.5 C-42.99359051373091 -37.5, 87.41906897253818 -37.5, 173.40625 -37.5 M-173.40625 -37.5 C-67.8321405550182 -37.5, 37.7419688899636 -37.5, 173.40625 -37.5 M173.40625 -37.5 C173.40625 -25.716146184869594, 173.40625 -13.932292369739184, 173.40625 0 M173.40625 -37.5 C173.40625 -23.314351197884214, 173.40625 -9.128702395768428, 173.40625 0 M173.40625 0 C75.77323753743157 0, -21.85977492513686 0, -173.40625 0 M173.40625 0 C78.55875918038575 0, -16.2887316392285 0, -173.40625 0 M-173.40625 0 C-173.40625 -7.552696449169887, -173.40625 -15.105392898339774, -173.40625 -37.5 M-173.40625 0 C-173.40625 -14.154937792400869, -173.40625 -28.309875584801738, -173.40625 -37.5" stroke="#64818d" stroke-width="1.3" fill="none" stroke-dasharray="0 0"/></g><g style="" class="row-rect-even"><path d="M-173.40625 0 L173.40625 0 L173.40625 37.5 L-173.40625 37.5" stroke="none" stroke-width="0" fill="hsl(192, 38.4615384615%, 99.9019607843%)"/><path d="M-173.40625 0 C-62.000174300695306 0, 49.40590139860939 0, 173.40625 0 M-173.40625 0 C-37.36676285126802 0, 98.67272429746396 0, 173.40625 0 M173.40625 0 C173.40625 12.345119455690737, 173.40625 24.690238911381474, 173.40625 37.5 M173.40625 0 C173.40625 11.905780278094461, 173.40625 23.811560556188923, 173.40625 37.5 M173.40625 37.5 C88.19776314397625 37.5, 2.9892762879524923 37.5, -173.40625 37.5 M173.40625 37.5 C70.24361725837458 37.5, -32.91901548325083 37.5, -173.40625 37.5 M-173.40625 37.5 C-173.40625 29.32854579227366, -173.40625 21.157091584547317, -173.40625 0 M-173.40625 37.5 C-173.40625 27.381756625441742, -173.40625 17.263513250883484, -173.40625 0" stroke="#64818d" stroke-width="1.3" fill="none" stroke-dasharray="0 0"/></g><g style="" class="row-rect-odd"><path d="M-173.40625 37.5 L173.40625 37.5 L173.40625 75 L-173.40625 75" stroke="none" stroke-width="0" fill="hsl(192, 38.4615384615%, 100%)"/><path d="M-173.40625 37.5 C-81.50994024325797 37.5, 10.386369513484055 37.5, 173.40625 37.5 M-173.40625 37.5 C-40.768910386361995 37.5, 91.86842922727601 37.5, 173.40625 37.5 M173.40625 37.5 C173.40625 48.49085205753184, 173.40625 59.48170411506367, 173.40625 75 M173.40625 37.5 C173.40625 49.32921262251034, 173.40625 61.15842524502068, 173.40625 75 M173.40625 75 C39.163086719840976 75, -95.08007656031805 75, -173.40625 75 M173.40625 75 C89.39836076481615 75, 5.390471529632293 75, -173.40625 75 M-173.40625 75 C-173.40625 60.434832153671685, -173.40625 45.86966430734337, -173.40625 37.5 M-173.40625 75 C-173.40625 63.49432602006813, -173.40625 51.98865204013626, -173.40625 37.5" stroke="#64818d" stroke-width="1.3" fill="none" stroke-dasharray="0 0"/></g><g class="label name" transform="translate(-125.8984375, -67.5)" style=""><foreignObject width="251.796875" height="22.5"><div xmlns="http://www.w3.org/1999/xhtml" style="display: table-cell; white-space: nowrap; line-height: 1.5; max-width: 343px; text-align: start;"><span class="nodeLabel"><p>private.payout_report_terms_versions</p></span></div></foreignObject></g><g class="label attribute-type" transform="translate(-160.90625, -30)" style=""><foreignObject width="67.5625" height="22.5"><div xmlns="http://www.w3.org/1999/xhtml" style="display: table-cell; white-space: nowrap; line-height: 1.5; max-width: 172px; text-align: start;"><span class="nodeLabel"><p>local_uuid</p></span></div></foreignObject></g><g class="label attribute-name" transform="translate(-68.34375, -30)" style=""><foreignObject width="59.203125" height="22.5"><div xmlns="http://www.w3.org/1999/xhtml" style="display: table-cell; white-space: nowrap; line-height: 1.5; max-width: 159px; text-align: start;"><span class="nodeLabel"><p>report_id</p></span></div></foreignObject></g><g class="label attribute-keys" transform="translate(70.875, -30)" style=""><foreignObject width="43.359375" height="22.5"><div xmlns="http://www.w3.org/1999/xhtml" style="display: table-cell; white-space: nowrap; line-height: 1.5; max-width: 145px; text-align: start;"><span class="nodeLabel"><p>PK,FK</p></span></div></foreignObject></g><g class="label attribute-comment" transform="translate(139.234375, -30)" style=""><foreignObject width="21.671875" height="22.5"><div xmlns="http://www.w3.org/1999/xhtml" style="display: table-cell; white-space: nowrap; line-height: 1.5; max-width: 124px; text-align: start;"><span class="nodeLabel"><p>NN</p></span></div></foreignObject></g><g class="label attribute-type" transform="translate(-160.90625, 7.5)" style=""><foreignObject width="67.5625" height="22.5"><div xmlns="http://www.w3.org/1999/xhtml" style="display: table-cell; white-space: nowrap; line-height: 1.5; max-width: 172px; text-align: start;"><span class="nodeLabel"><p>local_uuid</p></span></div></foreignObject></g><g class="label attribute-name" transform="translate(-68.34375, 7.5)" style=""><foreignObject width="43.359375" height="22.5"><div xmlns="http://www.w3.org/1999/xhtml" style="display: table-cell; white-space: nowrap; line-height: 1.5; max-width: 146px; text-align: start;"><span class="nodeLabel"><p>sku_id</p></span></div></foreignObject></g><g class="label attribute-keys" transform="translate(70.875, 7.5)" style=""><foreignObject width="43.359375" height="22.5"><div xmlns="http://www.w3.org/1999/xhtml" style="display: table-cell; white-space: nowrap; line-height: 1.5; max-width: 145px; text-align: start;"><span class="nodeLabel"><p>PK,FK</p></span></div></foreignObject></g><g class="label attribute-comment" transform="translate(139.234375, 7.5)" style=""><foreignObject width="21.671875" height="22.5"><div xmlns="http://www.w3.org/1999/xhtml" style="display: table-cell; white-space: nowrap; line-height: 1.5; max-width: 124px; text-align: start;"><span class="nodeLabel"><p>NN</p></span></div></foreignObject></g><g class="label attribute-type" transform="translate(-160.90625, 45)" style=""><foreignObject width="67.5625" height="22.5"><div xmlns="http://www.w3.org/1999/xhtml" style="display: table-cell; white-space: nowrap; line-height: 1.5; max-width: 172px; text-align: start;"><span class="nodeLabel"><p>local_uuid</p></span></div></foreignObject></g><g class="label attribute-name" transform="translate(-68.34375, 45)" style=""><foreignObject width="114.21875" height="22.5"><div xmlns="http://www.w3.org/1999/xhtml" style="display: table-cell; white-space: nowrap; line-height: 1.5; max-width: 222px; text-align: start;"><span class="nodeLabel"><p>terms_version_id</p></span></div></foreignObject></g><g class="label attribute-keys" transform="translate(70.875, 45)" style=""><foreignObject width="19.171875" height="22.5"><div xmlns="http://www.w3.org/1999/xhtml" style="display: table-cell; white-space: nowrap; line-height: 1.5; max-width: 121px; text-align: start;"><span class="nodeLabel"><p>FK</p></span></div></foreignObject></g><g class="label attribute-comment" transform="translate(139.234375, 45)" style=""><foreignObject width="21.671875" height="22.5"><div xmlns="http://www.w3.org/1999/xhtml" style="display: table-cell; white-space: nowrap; line-height: 1.5; max-width: 124px; text-align: start;"><span class="nodeLabel"><p>NN</p></span></div></foreignObject></g><g class="divider"><path d="M-173.40625 -37.5 C-62.36032957752248 -37.5, 48.685590844955044 -37.5, 173.40625 -37.5 M-173.40625 -37.5 C-45.60221028759902 -37.5, 82.20182942480196 -37.5, 173.40625 -37.5" stroke="#64818d" stroke-width="1.3" fill="none" stroke-dasharray="0 0"/></g><g class="divider"><path d="M-80.84375 -37.5 C-80.84375 1.4285813233091815, -80.84375 40.35716264661836, -80.84375 75 M-80.84375 -37.5 C-80.84375 -2.1283440240446936, -80.84375 33.24331195191061, -80.84375 75" stroke="#64818d" stroke-width="1.3" fill="none" stroke-dasharray="0 0"/></g><g class="divider"><path d="M58.375 -37.5 C58.375 1.7875620420876643, 58.375 41.07512408417533, 58.375 75 M58.375 -37.5 C58.375 6.9480510333163465, 58.375 51.39610206663269, 58.375 75" stroke="#64818d" stroke-width="1.3" fill="none" stroke-dasharray="0 0"/></g><g class="divider"><path d="M126.734375 -37.5 C126.734375 -10.940840890622976, 126.734375 15.618318218754048, 126.734375 75 M126.734375 -37.5 C126.734375 2.8914651979920194, 126.734375 43.28293039598404, 126.734375 75" stroke="#64818d" stroke-width="1.3" fill="none" stroke-dasharray="0 0"/></g><g class="divider"><path d="M-173.40625 -37.5 C-41.28309395315762 -37.5, 90.84006209368476 -37.5, 173.40625 -37.5 M-173.40625 -37.5 C-48.56789778492124 -37.5, 76.27045443015751 -37.5, 173.40625 -37.5" stroke="#64818d" stroke-width="1.3" fill="none" stroke-dasharray="0 0"/></g></g><g class="node default" id="entity-public_company_payout_report_components-8" transform="translate(1484.390625, 954.25)"><g style=""><path d="M-211.359375 -37.5 L211.359375 -37.5 L211.359375 37.5 L-211.359375 37.5" stroke="none" stroke-width="0" fill="#edf5f7"/><path d="M-211.359375 -37.5 C-90.98930779402363 -37.5, 29.380759411952738 -37.5, 211.359375 -37.5 M-211.359375 -37.5 C-69.3922732991166 -37.5, 72.57482840176681 -37.5, 211.359375 -37.5 M211.359375 -37.5 C211.359375 -7.937401216221815, 211.359375 21.62519756755637, 211.359375 37.5 M211.359375 -37.5 C211.359375 -17.99529107599043, 211.359375 1.5094178480191403, 211.359375 37.5 M211.359375 37.5 C95.30153763745543 37.5, -20.75629972508915 37.5, -211.359375 37.5 M211.359375 37.5 C106.26985935169527 37.5, 1.1803437033905482 37.5, -211.359375 37.5 M-211.359375 37.5 C-211.359375 22.283234873392942, -211.359375 7.066469746785884, -211.359375 -37.5 M-211.359375 37.5 C-211.359375 14.40233983592886, -211.359375 -8.69532032814228, -211.359375 -37.5" stroke="#64818d" stroke-width="1.3" fill="none" stroke-dasharray="0 0"/></g><g style="" class="row-rect-odd"><path d="M-211.359375 0 L211.359375 0 L211.359375 37.5 L-211.359375 37.5" stroke="none" stroke-width="0" fill="hsl(192, 38.4615384615%, 100%)"/><path d="M-211.359375 0 C-56.879765024320875 0, 97.59984495135825 0, 211.359375 0 M-211.359375 0 C-119.57379733041633 0, -27.788219660832652 0, 211.359375 0 M211.359375 0 C211.359375 9.209578397630601, 211.359375 18.419156795261202, 211.359375 37.5 M211.359375 0 C211.359375 13.391730280529387, 211.359375 26.783460561058774, 211.359375 37.5 M211.359375 37.5 C58.35798284928987 37.5, -94.64340930142026 37.5, -211.359375 37.5 M211.359375 37.5 C86.27653027664657 37.5, -38.806314446706864 37.5, -211.359375 37.5 M-211.359375 37.5 C-211.359375 27.833592795359927, -211.359375 18.16718559071985, -211.359375 0 M-211.359375 37.5 C-211.359375 24.06843286849007, -211.359375 10.636865736980145, -211.359375 0" stroke="#64818d" stroke-width="1.3" fill="none" stroke-dasharray="0 0"/></g><g class="label name" transform="translate(-186.359375, -30)" style=""><foreignObject width="372.71875" height="22.5"><div xmlns="http://www.w3.org/1999/xhtml" style="display: table-cell; white-space: nowrap; line-height: 1.5; max-width: 460px; text-align: start;"><span class="nodeLabel"><p>public.company_payout_report_components (reference)</p></span></div></foreignObject></g><g class="label attribute-type" transform="translate(-198.859375, 7.5)" style=""><foreignObject width="67.5625" height="22.5"><div xmlns="http://www.w3.org/1999/xhtml" style="display: table-cell; white-space: nowrap; line-height: 1.5; max-width: 172px; text-align: start;"><span class="nodeLabel"><p>local_uuid</p></span></div></foreignObject></g><g class="label attribute-name" transform="translate(-55.8515625, 7.5)" style=""><foreignObject width="11.6875" height="22.5"><div xmlns="http://www.w3.org/1999/xhtml" style="display: table-cell; white-space: nowrap; line-height: 1.5; max-width: 112px; text-align: start;"><span class="nodeLabel"><p>id</p></span></div></foreignObject></g><g class="label attribute-keys" transform="translate(31.28125, 7.5)" style=""><foreignObject width="20.015625" height="22.5"><div xmlns="http://www.w3.org/1999/xhtml" style="display: table-cell; white-space: nowrap; line-height: 1.5; max-width: 121px; text-align: start;"><span class="nodeLabel"><p>PK</p></span></div></foreignObject></g><g class="label attribute-comment" transform="translate(126.7421875, 7.5)" style=""><foreignObject width="21.671875" height="22.5"><div xmlns="http://www.w3.org/1999/xhtml" style="display: table-cell; white-space: nowrap; line-height: 1.5; max-width: 124px; text-align: start;"><span class="nodeLabel"><p>NN</p></span></div></foreignObject></g><g class="divider"><path d="M-211.359375 0 C-123.22259176890739 0, -35.085808537814785 0, 211.359375 0 M-211.359375 0 C-62.910337190059494 0, 85.53870061988101 0, 211.359375 0" stroke="#64818d" stroke-width="1.3" fill="none" stroke-dasharray="0 0"/></g><g class="divider"><path d="M-68.3515625 0 C-68.3515625 13.981410180096011, -68.3515625 27.962820360192023, -68.3515625 37.5 M-68.3515625 0 C-68.3515625 7.994980653238987, -68.3515625 15.989961306477975, -68.3515625 37.5" stroke="#64818d" stroke-width="1.3" fill="none" stroke-dasharray="0 0"/></g><g class="divider"><path d="M18.78125 0 C18.78125 12.686921987532832, 18.78125 25.373843975065665, 18.78125 37.5 M18.78125 0 C18.78125 12.251955203843258, 18.78125 24.503910407686515, 18.78125 37.5" stroke="#64818d" stroke-width="1.3" fill="none" stroke-dasharray="0 0"/></g><g class="divider"><path d="M114.2421875 0 C114.2421875 9.883776016494688, 114.2421875 19.767552032989375, 114.2421875 37.5 M114.2421875 0 C114.2421875 13.662484529287504, 114.2421875 27.324969058575007, 114.2421875 37.5" stroke="#64818d" stroke-width="1.3" fill="none" stroke-dasharray="0 0"/></g><g class="divider"><path d="M-211.359375 0 C-95.87586057663599 0, 19.607653846728027 0, 211.359375 0 M-211.359375 0 C-49.228254738917485 0, 112.90286552216503 0, 211.359375 0" stroke="#64818d" stroke-width="1.3" fill="none" stroke-dasharray="0 0"/></g></g></g></g></g></svg>